:SAMPLES-PER-SECOND 30
:FRAME-RANGE 1-668
:FULLY-SPECIFIED
:DEGREES
230
root  51.895 38.5865 -4.42244 -178.856 1.5694 176.632
RightUpLeg  7.86344 -0.893869 7.11027
RightLeg  10.4336 3.3445 0.602594
RightFoot  -19.7452 -0.444863 -4.23587
RightToes  -1.33073e-015 0 -3.6325e-017
Spine  2.57536 2.48486 5.84742
Spine1  9.79973 4.57663 -6.91506
HEad  2.19967 9.75103 -7.7565
LeftShoulder1  1.25979 0.308667 -33.3635
LeftArm  26.0027 24.0909 -32.6626
LeftForeArm  -4.20446 -15.0436 -12.4608
LeftHand  0.472318 -2.81182 -6.4772
RightShoulder  6.1582 7.13898 50.6925
RightArm  18.2578 -2.37447 9.9647
RightForeArm  14.4689 0.487322 18.0144
RightHand  0.280741 4.90971 2.85899
LeftUpLeg  -22.635 -2.90186 -7.67706
LeftLeg  -0.485713 14.4679 -5.20129
LeftFoot  0.482277 1.71844 -16.5282
LeftToes  -2.73175e-012 1.00346e-010 -4.28452e-011
231
root  52.4518 38.3435 -5.54072 -178.71 3.1111 176.78
RightUpLeg  9.67174 -0.788956 7.92045
RightLeg  10.3222 4.01365 0.855833
RightFoot  -19.8365 -0.568247 -5.83995
RightToes  -1.33073e-015 0 -3.6325e-017
Spine  1.8301 2.42752 4.99922
Spine1  9.80358 4.53951 -7.06054
HEad  0.376293 14.2532 -9.11894
LeftShoulder1  1.2502 0.323331 -33.2447
LeftArm  24.949 23.5479 -30.4059
LeftForeArm  -3.63597 -13.5523 -13.6492
LeftHand  0.310323 -2.19764 -4.57829
RightShoulder  6.61947 7.95424 50.6095
RightArm  15.1402 -0.820798 9.88466
RightForeArm  16.2532 -1.67627 18.0765
RightHand  0.316295 4.90508 3.26064
LeftUpLeg  -22.2316 -3.34362 -8.797
LeftLeg  -1.20763 18.3776 -5.50759
LeftFoot  0.545492 1.60615 -15.3842
LeftToes  -2.73175e-012 1.00346e-010 -4.28452e-011
232
root  53.1129 38.0482 -6.75845 -178.667 4.73735 176.896
RightUpLeg  11.3457 -1.05324 8.59261
RightLeg  11.2161 4.83881 1.26784
RightFoot  -20.1849 -0.66969 -6.88652
RightToes  -1.33073e-015 0 -3.6325e-017
Spine  1.28387 2.53542 3.87756
Spine1  9.47096 4.63221 -7.08953
HEad  -1.93512 18.5093 -10.1832
LeftShoulder1  1.23993 0.330379 -33.0099
LeftArm  21.4202 21.8973 -27.9583
LeftForeArm  -1.50867 -10.9405 -15.2578
LeftHand  0.271252 -1.74139 -4.27779
RightShoulder  7.20088 8.83429 51.1151
RightArm  12.2087 0.458398 9.77165
RightForeArm  17.1999 -3.33336 17.9626
RightHand  0.330308 4.7938 3.46278
LeftUpLeg  -22.3928 -3.02862 -9.69834
LeftLeg  2.64255 18.6204 -4.4325
LeftFoot  0.981106 1.5335 -14.2025
LeftToes  -2.73175e-012 1.00346e-010 -4.28452e-011
233
root  53.8091 37.8914 -7.97851 -178.768 6.92518 176.442
RightUpLeg  13.0771 -1.81567 8.04242
RightLeg  12.275 7.71998 2.13613
RightFoot  -19.4087 -0.667515 -7.59351
RightToes  -1.33073e-015 0 -3.6325e-017
Spine  1.00846 2.76625 2.27728
Spine1  9.17201 5.10157 -7.79011
HEad  -4.87178 22.9142 -11.2823
LeftShoulder1  1.24514 0.313411 -32.9657
LeftArm  18.1232 19.4242 -25.0705
LeftForeArm  -0.299677 -8.10782 -16.676
LeftHand  0.277068 -1.20177 -4.78754
RightShoulder  7.9166 9.82044 52.0108
RightArm  7.91319 1.3661 9.96942
RightForeArm  18.8087 -4.72394 17.5184
RightHand  0.338917 4.62811 3.63042
LeftUpLeg  -22.9195 -1.98873 -11.2769
LeftLeg  6.11027 18.0707 -2.90614
LeftFoot  3.92858 -0.393872 2.76008
LeftToes  -2.73175e-012 1.00346e-010 -4.28452e-011
234
root  54.5319 37.8004 -9.17737 -179.054 8.56374 174.989
RightUpLeg  12.9241 -4.82639 5.357
RightLeg  17.3005 12.7198 4.35237
RightFoot  -18.1254 -0.548334 -7.17489
RightToes  -1.33073e-015 0 -3.6325e-017
Spine  1.45867 2.68502 -0.629971
Spine1  8.14904 5.00945 -8.0797
HEad  -8.805 27.7207 -13.4646
LeftShoulder1  1.31175 0.215267 -33.8205
LeftArm  17.4942 15.3037 -21.7509
LeftForeArm  -2.51572 -5.13669 -18.1522
LeftHand  0.264388 -0.575585 -5.11671
RightShoulder  8.72997 10.855 53.1784
RightArm  4.12106 2.39123 10.5685
RightForeArm  19.4565 -5.38198 17.0658
RightHand  0.346443 4.54234 3.75522
LeftUpLeg  -24.0084 0.837557 -13.9215
LeftLeg  11.3467 15.6637 0.531721
LeftFoot  5.92158 -1.44275 9.24462
LeftToes  -2.73175e-012 1.00346e-010 -4.28452e-011
235
root  55.2062 37.7894 -10.2666 -179.305 9.1064 174.182
RightUpLeg  10.0307 -9.31559 2.32897
RightLeg  27.3896 17.9472 9.63898
RightFoot  -13.5789 -0.167068 -3.85539
RightToes  -1.33073e-015 0 -3.6325e-017
Spine  2.47259 2.43906 -2.0434
Spine1  7.02936 4.79199 -8.78057
HEad  -12.7835 31.7894 -16.5161
LeftShoulder1  1.4887 -0.133585 -34.8494
LeftArm  21.5642 8.6726 -19.943
LeftForeArm  -9.43739 -2.14844 -19.8098
LeftHand  0.206635 0.376842 -4.88076
RightShoulder  9.23825 11.4538 53.9845
RightArm  1.55867 3.22582 11.7889
RightForeArm  19.3609 -4.72887 16.6929
RightHand  0.347269 4.37133 3.84232
LeftUpLeg  -24.7867 5.18886 -16.1716
LeftLeg  16.5017 10.6805 3.25992
LeftFoot  3.44594 -1.11769 8.43508
LeftToes  -2.73175e-012 1.00346e-010 -4.28452e-011
236
root  55.7083 37.781 -11.1786 -179.675 10.2934 173.459
RightUpLeg  4.77352 -10.3308 -0.67579
RightLeg  39.9964 19.6106 16.5861
RightFoot  -7.27366 -0.537823 13.6843
RightToes  -1.33073e-015 0 -3.6325e-017
Spine  3.39146 2.60259 -2.16768
Spine1  6.86616 5.29984 -10.699
HEad  -15.845 35.7562 -19.7442
LeftShoulder1  1.63292 -0.490315 -34.8111
LeftArm  19.6073 1.84981 -20.4193
LeftForeArm  -9.95127 -1.52626 -19.985
LeftHand  0.149408 1.27884 -4.48218
RightShoulder  9.91373 12.6476 53.6583
RightArm  2.34161 3.18705 13.6808
RightForeArm  17.7717 -2.0076 16.5644
RightHand  0.343983 4.30107 3.83566
LeftUpLeg  -24.8011 6.59975 -16.5128
LeftLeg  19.7897 10.1644 4.28239
LeftFoot  1.35246 -1.08742 9.67735
LeftToes  -2.73175e-012 1.00346e-010 -4.28452e-011
237
root  56.1302 37.6175 -11.9335 -179.763 10.9978 172.414
RightUpLeg  -2.31072 -8.72336 -3.05185
RightLeg  51.4542 17.224 21.4966
RightFoot  1.31741 -3.28212 29.078
RightToes  -1.33073e-015 0 -3.6325e-017
Spine  4.03787 2.6136 -3.85676
Spine1  6.81981 5.10261 -11.2252
HEad  -18.1439 40.3872 -23.3611
LeftShoulder1  1.70161 -0.679723 -34.6085
LeftArm  13.2224 -3.34465 -22.0216
LeftForeArm  -6.32618 0.368962 -19.8038
LeftHand  0.118815 1.5021 -3.85595
RightShoulder  10.578 13.9108 53.1145
RightArm  9.82876 3.53578 15.1452
RightForeArm  13.7128 3.27643 16.4056
RightHand  0.402074 4.59215 4.37856
LeftUpLeg  -25.4009 6.34323 -16.8682
LeftLeg  23.3797 10.8279 5.35356
LeftFoot  -1.11557 -0.794169 8.9317
LeftToes  -2.73175e-012 1.00346e-010 -4.28452e-011
238
root  56.5911 37.681 -12.7838 179.65 10.0568 172.092
RightUpLeg  -7.9587 -8.64149 -4.58108
RightLeg  59.4027 9.67512 16.7134
RightFoot  2.32629 -3.20947 26.4715
RightToes  -1.33073e-015 0 -3.6325e-017
Spine  5.06942 2.23773 -5.20833
Spine1  6.6067 4.17887 -9.96183
HEad  -19.7169 44.5209 -25.9547
LeftShoulder1  1.75876 -0.841393 -34.4156
LeftArm  8.10722 -8.36505 -24.8894
LeftForeArm  -1.74679 2.08227 -19.397
LeftHand  0.0975071 1.42109 -3.1289
RightShoulder  10.648 14.3115 52.2862
RightArm  19.7991 4.08646 16.5513
RightForeArm  8.61174 9.91329 14.4055
RightHand  0.409127 4.86613 4.32361
LeftUpLeg  -23.8331 6.31416 -16.5902
LeftLeg  24.8965 10.0423 5.37361
LeftFoot  -3.0502 -0.560642 7.97562
LeftToes  -2.73175e-012 1.00346e-010 -4.28452e-011
239
root  57.0679 37.8477 -13.6816 179.033 8.63749 172.403
RightUpLeg  -12.8418 -8.20944 -5.87654
RightLeg  64.5678 3.73119 7.95672
RightFoot  0.655941 -2.22351 20.9846
RightToes  -1.33073e-015 0 -3.6325e-017
Spine  5.71754 2.09063 -4.99
Spine1  6.81955 3.85748 -9.49392
HEad  -20.3939 47.5195 -26.6512
LeftShoulder1  1.82008 -1.06138 -33.8195
LeftArm  0.157723 -13.0685 -28.7268
LeftForeArm  7.99519 1.48936 -18.0548
LeftHand  0.109026 0.255102 -2.5212
RightShoulder  10.5517 14.2596 51.9739
RightArm  29.6108 3.95978 17.2978
RightForeArm  1.53347 16.3955 10.3395
RightHand  0.323032 5.00214 3.29917
LeftUpLeg  -21.4466 5.59399 -15.572
LeftLeg  25.4326 9.56787 5.24786
LeftFoot  -4.57452 -0.40207 7.25782
LeftToes  -2.73175e-012 1.00346e-010 -4.28452e-011
240
root  57.5588 38.0962 -14.5853 178.693 6.76793 173.217
RightUpLeg  -17.0899 -7.31056 -6.84939
RightLeg  66.3689 0.205886 -0.132324
RightFoot  0.629266 -1.54068 14.6623
RightToes  -1.33073e-015 0 -3.6325e-017
Spine  6.11198 1.93237 -4.02791
Spine1  6.75289 3.65288 -9.15732
HEad  -20.4621 50.1028 -26.2133
LeftShoulder1  1.82824 -1.13849 -33.3386
LeftArm  3.54494 -16.2369 -33.6028
LeftForeArm  8.29768 -6.12782 -16.0927
LeftHand  0.120489 -1.2553 -1.9963
RightShoulder  10.4693 14.1463 51.9017
RightArm  34.5535 3.57553 17.364
RightForeArm  -2.81469 20.528 6.79657
RightHand  0.185837 4.87244 1.80002
LeftUpLeg  -18.8525 4.71129 -14.0254
LeftLeg  25.1428 8.81716 4.77141
LeftFoot  -5.73173 -0.287659 6.56992
LeftToes  -2.73175e-012 1.00346e-010 -4.28452e-011
241
root  58.0796 38.3539 -15.4594 178.438 4.43939 174.072
RightUpLeg  -19.9855 -5.65072 -8.05028
RightLeg  64.1236 -1.94793 -4.96554
RightFoot  -0.484055 -1.10479 11.5539
RightToes  -1.33073e-015 0 -3.6325e-017
Spine  6.66639 1.7644 -3.34413
Spine1  6.18232 3.32637 -8.42354
HEad  -20.1311 52.2261 -25.1571
LeftShoulder1  1.80609 -1.12402 -32.9853
LeftArm  21.0068 -17.986 -39.2939
LeftForeArm  -4.67588 -18.0427 -9.31092
LeftHand  0.140712 -2.6015 -1.84395
RightShoulder  10.2293 13.7806 51.7899
RightArm  34.544 3.27655 17.3647
RightForeArm  -2.67982 22.8142 5.2967
RightHand  0.0571015 4.69827 0.362523
LeftUpLeg  -16.2388 4.20133 -12.4017
LeftLeg  24.3913 7.29374 3.82928
LeftFoot  -6.60173 -0.208972 6.00582
LeftToes  -2.73175e-012 1.00346e-010 -4.28452e-011
